<svg height="512pt" viewBox="0 0 512 512" width="512pt" xmlns="http://www.w3.org/2000/svg"><path d="m512 256c0 141.386719-114.613281 256-256 256s-256-114.613281-256-256 114.613281-256 256-256 256 114.613281 256 256zm0 0" fill="#40deed"/><path d="m512 256c0-12.433594-.90625-24.65625-2.617188-36.617188l-108.382812-108.382812-290 290 108.382812 108.382812c11.960938 1.710938 24.183594 2.617188 36.617188 2.617188 141.386719 0 256-114.613281 256-256zm0 0" fill="#1eb8d1"/><path d="m111 111h290v290h-290zm0 0" fill="#fff"/><path d="m255.808594 111h145.191406v290h-145.191406zm0 0" fill="#e9edf5"/><path d="m373.667969 256c0 64.984375-52.683594 117.667969-117.667969 117.667969s-117.667969-52.683594-117.667969-117.667969 52.683594-117.667969 117.667969-117.667969 117.667969 52.683594 117.667969 117.667969zm0 0" fill="#e6e6e6"/><path d="m256 138.332031c-.0625 0-.128906.003907-.191406.003907v235.328124h.191406c64.984375 0 117.667969-52.679687 117.667969-117.667968 0-64.980469-52.683594-117.664063-117.667969-117.664063zm0 0" fill="#d7d7d7"/><path d="m232.335938 256c0 15.28125-12.390626 27.667969-27.667969 27.667969-15.28125 0-27.667969-12.386719-27.667969-27.667969s12.386719-27.667969 27.667969-27.667969c15.277343 0 27.667969 12.386719 27.667969 27.667969zm0 0" fill="#7e8596"/><path d="m335 256c0 15.28125-12.386719 27.667969-27.667969 27.667969-15.277343 0-27.667969-12.386719-27.667969-27.667969s12.390626-27.667969 27.667969-27.667969c15.28125 0 27.667969 12.386719 27.667969 27.667969zm0 0" fill="#707789"/></svg>